<svg version="1.2" xmlns="http://www.w3.org/2000/svg" viewBox="0 0 350 300" width="350" height="300"><style>.a{fill:#f5f5f5}.b{fill:#d6d6d6}.c{fill:none;stroke:#262626;stroke-linecap:round;stroke-linejoin:round;stroke-width:.4}.d{fill:#fec02d}.e{fill:#ff7129}.f{opacity:.5;fill:#e8a600}.g{fill:#e8a600}.h{fill:#f7a99c}.i{fill:#ff7769}.j{fill:#262626}.k{fill:none;stroke:#262626;stroke-linecap:round;stroke-linejoin:round;stroke-width:1.7}.l{fill:#fff}.m{fill:none;stroke:#262626;stroke-linecap:round;stroke-linejoin:round}.n{fill:#4450e4}.o{opacity:.5;fill:#cdebf5}.p{fill:none;stroke:#262626;stroke-linecap:round;stroke-linejoin:round;stroke-width:1.5}.q{fill:none;stroke:#fff;stroke-linecap:round;stroke-linejoin:round}.r{fill:#2a83c6}.s{fill:#3897e9}.t{fill:#5fbbff}.u{opacity:.5;fill:#d6d6d6}.v{fill:#fdb6d6}</style><path class="a" d="m5.2 74.3c-3 0.5-5 3.2-4.5 6.1l22.2 141.2c0.5 3 3.2 5 6.2 4.5l102.8-16.1c2.9-0.5 4.9-3.2 4.5-6.2l-18.6-118-34.2-23.9z"/><path class="b" d="m91.6 90l26.2-4.1-34.2-23.9 4 25.1c0.3 1.8 2.1 3.2 4 2.9z"/><path fill-rule="evenodd" class="c" d="m83.6 61.9l4 25.1c0.3 1.9 2 3.2 4 3l26.1-4.1"/><path class="b" d="m62 157.6c-0.6-3.6-0.8-6.5-0.6-8.8 0.2-2.3 1-4.4 2.2-6.5 0.8-1.3 1.6-2.3 2.7-3.4 1-0.9 2-2 2.8-3 0.8-1.1 1.5-2.2 2-3.4 0.5-1.2 0.6-2.7 0.3-4.5-0.5-2.9-1.6-4.9-3.4-5.8-1.9-1-3.9-1.2-6.2-0.9-3.2 0.5-5.3 1.8-6.2 3.8-1 2-1.3 4.5-1.2 7.6l-11.7 1.9c-0.5-3-0.4-5.8 0.1-8.4 0.6-2.6 1.7-4.9 3.2-6.9 1.6-2 3.6-3.7 5.9-4.9 2.4-1.3 5.1-2.3 8.1-2.8 6.6-1 12-0.4 16.3 1.6 4.2 2.1 6.8 6.2 7.7 12.2 0.4 1.9 0.4 3.7 0.3 5.2-0.2 1.5-0.6 3-1.1 4.2-0.7 1.3-1.5 2.6-2.4 3.8-1 1.2-2.2 2.5-3.5 3.8-1.2 1.3-2.1 2.4-2.8 3.4q-1.1 1.6-1.4 3.1c-0.3 1.1-0.4 2.1-0.3 3.2 0 1.1 0.1 2.3 0.4 3.7zm2.4 17.7l-2-12 12.4-1.9 1.9 12z"/><path class="d" d="m122.4 164.7c13.6 13.3 29.4 31.4 44.1 54.7 10.3 16.2 17.9 31.7 23.5 45.3-13 5.8-26 11.7-39.1 17.6l-33.6-114.1z"/><path class="d" d="m97.6 155.5l25.2 7.8c6.8 10.9 10.8 20.6 13.2 27.3 10.8 31.3 7.3 59.9 6.4 68 0 0 0 0.2-3.2 23.8h-114.8c-0.4-8.6-0.4-20.4 1.6-34.3 2.4-16.5 4.7-31.7 14.6-48.5 4.1-6.8 18.2-28.6 45.1-40 4.9-2.1 9.1-3.3 11.9-4.1z"/><path class="e" d="m38.6 203.2c14 4.5 31.8 8.9 52.6 11.1 19.5 2 36.7 1.5 50.6 0.2q0.6 4.9 1.2 9.9c-14.9 1.2-32.5 1.6-52.3-0.2-22.2-1.9-41.4-6-56.9-10.4q2.4-5.3 4.8-10.6z"/><path class="f" d="m146.3 194.4l5.7 1.3-20.8 86.6h-11.6z"/><path class="g" d="m99.8 265.7l4.9-1.5 11.2 5.8 2.8-6.8-14.2-5.5-5.7 2.7z"/><path class="f" d="m24.2 269.3c11.4 2.9 25 5.4 40.4 6.7 13.5 1.1 25.8 0.9 36.4 0.2 0-4.3 0-8.7 0-13-25.3-2.8-50.5-5.7-75.8-8.5z"/><path class="h" d="m107.7 173.5c-7.1-1.2-11.8-7.9-10.6-15.1l4.7-27.6 25.7 4.4-4.7 27.6c-1.2 7.2-8 12-15.1 10.7z"/><path class="i" d="m124.1 155.2l-15.2-11.6c-0.1 1.5-0.3 8.4 4.8 14.2 3.3 3.7 7.2 5 9 5.6z"/><path class="h" d="m102.7 122.1c0-0.4-1-1.3-1.3-1.5q-0.7-0.7-1.7-1.2c-1.2-0.6-2.5-1-3.9-0.9-2.6 0.2-5.3 1.9-6.2 4.5-0.4 1.5-0.4 3.1 0 4.6 0.7 2.4 2 4.4 3.8 5.9 1.5 1.3 3.3 2.1 5.2 2.5 0.4 0.1 4.3 0.8 4.3 0.6 0-4.8-0.1-9.6-0.2-14.5z"/><path class="h" d="m99.2 121.8c-0.1 2.1-0.2 13.3 8.3 22.7 1.5 1.8 11.9 13.3 23.7 10.6 15.1-3.5 17.6-26.9 17.7-28.2 0.4-4.3 1.6-16.9-7.6-25.4-7.5-7-16.9-6.6-18.3-6.5-1.4 0.1-10.6 0.7-17.4 8.3-6.1 7-6.4 15.1-6.4 18.5z"/><path class="j" d="m140.9 125.6c-0.1 1.8 1.1 3.4 2.7 3.5 1.5 0.1 2.8-1.4 2.9-3.2 0.1-1.9-1-3.5-2.6-3.5-1.6-0.1-2.9 1.3-3 3.2z"/><path fill-rule="evenodd" class="k" d="m135.6 127.4l1.9 3.8c0.3 0.8 0 1.6-0.7 1.9l-2.6 0.9"/><path class="i" d="m117.3 132.3c-0.1 2.1 1.5 3.8 3.6 3.9 2.1 0.1 3.9-1.5 3.9-3.6 0.1-2.1-1.5-3.8-3.6-3.9-2-0.1-3.8 1.5-3.9 3.6z"/><path fill-rule="evenodd" class="k" d="m99.4 131.2c0.1-0.4 0.6-3.2-1.3-5.6-1.4-1.8-3.4-2.3-4-2.4"/><path fill-rule="evenodd" class="k" d="m98.2 126.2c-0.1-0.1-1.6-0.5-2.8 0.4-1 0.8-1.1 1.9-1.1 2.1"/><path class="i" d="m146.2 131.3c0.7 0 1.4 0.3 1.9 0.7-0.4 2-1 4.3-1.9 6.8-0.2 0-0.2 0-0.4 0-2.1-0.1-3.7-1.9-3.6-4 0.2-2 1.9-3.6 4-3.5z"/><path fill-rule="evenodd" class="k" d="m126.2 121.6l3.1 3.6-4.5 1.5"/><path class="l" d="m124.8 141.6l11.3 1.3c0-0.2-0.5-3.5-3.2-4.8-2.6-1.2-6.3 0.2-8.1 3.5z"/><path class="j" d="m99.2 119.2c0.7 0.3 2.1 0.9 3.3 2.5 1.1 1.5 1.4 2.9 1.5 3.6 11.6-1.1 18.4-4.4 22.4-7.3 0 0 0.4-0.3 8.9-6.8 1.4 1.6 3.5 3.6 6.7 5.2 2.8 1.6 5.3 2.4 7.2 2.8 6.1-1.4 10.4-6 10.5-10.8 0.2-5-4.3-8.8-7.5-10.4-5.2-2.6-7.6 0.4-15.2-1.6-6.2-1.6-5.9-4-11.7-5.3-1.7-0.4-8.9-2.2-16.2 1.7-6.2 3.2-11 9.7-11.5 17.2-0.3 4 0.8 7.3 1.6 9.2z"/><path class="d" d="m97.6 155.5c-10.3 2.3-29.6 8.3-47.5 24.3 0 0-18.1 16.2-30.5 46.2-1.1 2.7-2.3 5.5-3.6 11.4-1.1 4.6-1.6 8.8-1.7 12.5-0.1 2.7 1.6 5.3 4.1 6.2 2.3 0.8 4.9 1.8 7.9 2.7 5.3 1.8 17.3 6.8 30.8 8.6 28.1 3.9 43.8 4.9 43.8 4.9l2.1-48.7-37.3-4.7z"/><path fill-rule="evenodd" class="m" d="m127.7 180.5c4.7 16.4 7.6 30.1 9.5 40.1"/><path class="f" d="m79 177.6l-21 47.1h12.8z"/><path class="n" d="m149.3 195.3l-11.3-3.2-24.7 87 11.3 3.2z"/><path class="h" d="m102.2 235.1c0 0 21.2-2.1 23.4-1.5 2.3 0.8 10 5.1 11.2 6.4 1.1 1.2 1.5 2.4 1.3 3.6-0.1 1.2-1.7 2.4-1.7 2.4 1.2 2 1.3 3.2 1.1 4.1-0.5 1.6-2.3 3.2-2.3 3.3 0.1 0.5 0.3 1.2 0.3 2 0 0.8 0.1 2.4-0.7 3.9-1.2 2.3-3.7 2.8-4.2 3 0 0 1 1.7-0.3 3.3-1.3 1.5-5 3.3-9.5 2.7-4.4-0.7-16-6.3-16-6.3l-3.6 1.2z"/><path class="o" d="m160 194.5c28.5 0 51.6-23.1 51.6-51.6 0-28.5-23.1-51.6-51.6-51.6-28.5 0-51.6 23.1-51.6 51.6 0 28.5 23.1 51.6 51.6 51.6z"/><path fill-rule="evenodd" class="n" d="m218.3 142.9c0 32.2-26.1 58.3-58.3 58.3-32.1 0-58.2-26.1-58.2-58.3 0-32.1 26.1-58.2 58.2-58.2 32.2 0 58.3 26.1 58.3 58.2zm-9.5 0c0-26.9-21.8-48.7-48.8-48.7-26.8 0-48.7 21.8-48.7 48.7 0 26.9 21.8 48.7 48.7 48.7 27 0 48.8-21.8 48.8-48.7z"/><path fill-rule="evenodd" class="p" d="m136.3 246c0 0-7.9-1.4-11.8-3.2-3.9-1.9-5.4-2.9-5.4-2.9"/><path fill-rule="evenodd" class="p" d="m135 253.4c0 0-9-0.9-12.7-3-3.7-2.1-5-3.6-5-3.6"/><path fill-rule="evenodd" class="p" d="m132 261.8c-3.8-0.2-6.8-1-8.8-1.8-3.3-1.4-7.6-4-7.6-4"/><path class="i" d="m102.2 235.1l-1.2 28.1 3.7-1.2-1.2-27.1z"/><path fill-rule="evenodd" class="m" d="m77.5 180.5c0 0-19.5 42.7-18.9 43.9 0.6 1.1 44.4-0.8 44.4-0.8l-2.1 48.7c0 0-34.2-2.2-47.7-5.5-13.6-3.4-29-8.7-29-8.7"/><path class="l" d="m162.7 108.4c-0.3 0.6-0.3 1.4-0.1 2.2 0.6 1.5 2.2 2.2 3.8 1.7 2.7-1.1 5.6-1.5 8.5-1.3 3.2 0.2 5.6 1.2 6.8 1.8 1.4 0.6 4.3 2 6.4 4.9 3.1 4.2 2.7 9 2.5 10.9-0.2 1.6 0.9 3 2.5 3.3 1.6 0.2 3-0.9 3.3-2.5 0.4-3.2 0.4-9.4-3.6-15-3.1-4.2-7-6-8.7-6.8-1.8-0.9-4.9-2-8.9-2.3-3.6-0.2-7.4 0.3-10.9 1.6-0.7 0.3-1.3 0.8-1.6 1.5z"/><path fill-rule="evenodd" class="q" d="m61.3 176.2c-7 6.3-16.1 15.7-24.4 28.7-8.5 13.4-13.2 25.9-15.9 35.1"/><path class="r" d="m198.3 282.3h-86.6c-3.3 0-6.1-2.7-6.1-6.1v-3.9h92.8v10z"/><path class="r" d="m262.8 282.3h-94.4c-3.6 0-6.3-3.2-5.9-7.1l7.1-61.6c0.5-4 3.9-7.2 7.6-7.2h94.4c3.7 0 6.4 3.2 6 7.2l-7.2 61.6c-0.4 4-3.8 7.1-7.6 7.1z"/><path class="s" d="m272 282.3h-94.4c-3.7 0-6.4-3.2-6-7.1l7.2-61.6c0.4-4 3.8-7.2 7.5-7.2h94.5c3.6 0 6.3 3.2 5.9 7.2l-7.1 61.6c-0.5 4-3.9 7.1-7.6 7.1z"/><path class="t" d="m286.7 217.2l-7.1 58.4c0 0 0.3 6.7-10.8 6.7-11 0-61.8 0-61.8 0 6.6-0.1 29.9-1.1 51.4-18.6 21.3-17.4 26.9-40 28.3-46.5z"/><path fill-rule="evenodd" class="m" d="m284.7 224.7c-2.2 6.9-7.4 20.5-19.8 33.1-12.3 12.5-25.5 17.9-32.4 20.2"/><path class="d" d="m229.2 250.6h-3.3l2.1-13.4h3.2z"/><path class="d" d="m233.5 250.6h-3.3l1.4-9.2h3.3z"/><path fill-rule="evenodd" class="m" d="m136.9 92.8c-4.8 2.8-16.8 10.4-24.7 25.7-7.8 15.4-7.1 29.5-6.5 35"/><path fill-rule="evenodd" class="m" d="m142.7 255.2l-1.9-13.2"/><path class="a" d="m325.8 242.1h-123.8c-2.8 0-5.1-2.3-5.1-5.1v-90.6c0-2.8 2.3-5.2 5.1-5.2h123.8c2.8 0 5.1 2.4 5.1 5.2v90.6c0.1 2.8-2.2 5.1-5.1 5.1z"/><path class="u" d="m331 152.9v-6.5c0-2.8-2.3-5.2-5.1-5.2h-123.9c-2.8 0-5.1 2.4-5.1 5.2v6.5z"/><path class="a" d="m203.9 147.6c0 0.9-0.7 1.6-1.6 1.6-0.9 0-1.6-0.7-1.6-1.6 0-0.8 0.7-1.6 1.6-1.6 0.9 0 1.6 0.8 1.6 1.6z"/><path class="a" d="m208.9 147.6c0 0.9-0.7 1.6-1.6 1.6-0.9 0-1.6-0.7-1.6-1.6 0-0.8 0.7-1.6 1.6-1.6 0.9 0 1.6 0.8 1.6 1.6z"/><path class="a" d="m214 147.6c0 0.9-0.7 1.6-1.6 1.6-0.8 0-1.6-0.7-1.6-1.6 0-0.8 0.8-1.6 1.6-1.6 1 0 1.6 0.8 1.6 1.6z"/><path class="u" d="m278.4 176.8v-6.5c0-2.2-1.7-3.9-3.9-3.9h-37.9c-2.2 0-3.9 1.7-3.9 3.9v6.5 43.6c0 2.2 1.7 4 3.9 4h60.7c2.2 0 3.9-1.8 3.9-4v-39.6c0-2.2-1.7-4-3.9-4z"/><path class="b" d="m274.6 186l-7.7 7.6-7.6-7.6-4.6 4.6 7.7 7.7-7.7 7.6 4.6 4.6 7.6-7.7 7.7 7.7 4.6-4.6-7.6-7.6 7.6-7.7z"/><path fill-rule="evenodd" class="c" d="m202 141.2h123.8c2.8 0 5.1 2.4 5.1 5.2v90.6"/><path class="v" d="m341 299.4h-331.8c-4.8 0-8.6-3.8-8.6-8.6 0-4.7 3.8-8.5 8.6-8.5h331.8c4.7 0 8.6 3.8 8.6 8.5 0 4.8-3.9 8.6-8.6 8.6z"/><path class="e" d="m319.3 164.5c-0.5-4.7-0.7-8.5-0.3-11.4 0.3-3 1.4-5.8 3.2-8.4 1-1.6 2.2-3 3.6-4.3 1.4-1.2 2.6-2.4 3.8-3.7 1.1-1.3 2-2.7 2.7-4.3 0.7-1.5 0.9-3.4 0.6-5.7-0.5-3.9-1.9-6.5-4.2-7.8-2.3-1.3-5-1.7-7.9-1.3-4.3 0.5-7 2-8.3 4.6-1.3 2.6-1.9 5.8-1.7 9.8l-15.4 2c-0.5-4-0.3-7.6 0.6-10.8 0.8-3.4 2.3-6.3 4.4-8.8 2-2.5 4.6-4.6 7.8-6.2 3.1-1.6 6.7-2.6 10.6-3.1 8.6-1.1 15.6-0.2 21 2.7q8 4.3 9.6 16.1c0.3 2.5 0.3 4.8 0.1 6.8-0.3 2-0.8 3.7-1.7 5.4-0.8 1.7-1.9 3.3-3.3 4.8q-2 2.3-4.5 4.8c-1.6 1.6-2.8 3-3.8 4.3-1 1.3-1.6 2.7-2 4-0.4 1.3-0.6 2.7-0.6 4.1 0 1.5 0.2 3 0.4 4.7zm2.4 23.1l-2-15.6 16.1-2 1.9 15.6z"/><path class="a" d="m281.7 88.1c16.1-16.1 16.1-42.1 0-58.2-16-16-42.1-16-58.1 0-16.1 16.1-16.1 42.1 0 58.2 16 16 42.1 16 58.1 0z"/><path class="u" d="m276.2 82.6c13.1-13 13.1-34.2 0-47.2-13-13-34.1-13-47.1 0-13.1 13-13.1 34.2 0 47.2 13 13 34.1 13 47.1 0z"/><path class="b" d="m253.8 35.6h-2.2v27.2h2.2z"/><path class="b" d="m252.7 60.7l-1.2 1.9 15.3 8.8 1.1-1.9z"/></svg>